<svg width="30" height="30" viewBox="0 0 30 30" fill="none" xmlns="http://www.w3.org/2000/svg">
<path d="M14.881 11.4286H17.8571V7.14286H22.3214V4.28571H17.8571V0H14.881V4.28571H10.4167V7.14286H14.881V11.4286ZM8.92857 24.2857C7.29167 24.2857 5.96726 25.5714 5.96726 27.1429C5.96726 28.7143 7.29167 30 8.92857 30C10.5655 30 11.9048 28.7143 11.9048 27.1429C11.9048 25.5714 10.5655 24.2857 8.92857 24.2857ZM23.8095 24.2857C22.1726 24.2857 20.8482 25.5714 20.8482 27.1429C20.8482 28.7143 22.1726 30 23.8095 30C25.4464 30 26.7857 28.7143 26.7857 27.1429C26.7857 25.5714 25.4464 24.2857 23.8095 24.2857ZM9.18155 19.6429L9.22619 19.4714L10.5655 17.1429H21.6518C22.7679 17.1429 23.75 16.5571 24.256 15.6714L30 5.65714L27.4107 4.28571H27.3958L25.7589 7.14286L21.6518 14.2857H11.2054L11.0119 13.9L7.67857 7.14286L6.26488 4.28571L4.86607 1.42857H0V4.28571H2.97619L8.33333 15.1286L6.32441 18.6286C6.08631 19.0286 5.95238 19.5 5.95238 20C5.95238 21.5714 7.29167 22.8571 8.92857 22.8571H26.7857V20H9.55357C9.36012 20 9.18155 19.8429 9.18155 19.6429Z" fill="white"/>
</svg>
