<svg width="719" height="60" viewBox="0 0 719 60" fill="none" xmlns="http://www.w3.org/2000/svg">
<path d="M21.72 24.28C21.72 26.6 20.92 28.5333 19.32 30.08C17.7467 31.6 15.3333 32.36 12.08 32.36H6.72V44H3.08V16.12H12.08C15.2267 16.12 17.6133 16.88 19.24 18.4C20.8933 19.92 21.72 21.88 21.72 24.28ZM12.08 29.36C14.1067 29.36 15.6 28.92 16.56 28.04C17.52 27.16 18 25.9067 18 24.28C18 20.84 16.0267 19.12 12.08 19.12H6.72V29.36H12.08ZM29.8841 25.64C30.5241 24.3867 31.4307 23.4133 32.6041 22.72C33.8041 22.0267 35.2574 21.68 36.9641 21.68V25.44H36.0041C31.9241 25.44 29.8841 27.6533 29.8841 32.08V44H26.2441V22.08H29.8841V25.64ZM50.7259 44.36C48.6726 44.36 46.8059 43.8933 45.1259 42.96C43.4726 42.0267 42.1659 40.7067 41.2059 39C40.2726 37.2667 39.8059 35.2667 39.8059 33C39.8059 30.76 40.2859 28.7867 41.2459 27.08C42.2326 25.3467 43.5659 24.0267 45.2459 23.12C46.9259 22.1867 48.8059 21.72 50.8859 21.72C52.9659 21.72 54.8459 22.1867 56.5259 23.12C58.2059 24.0267 59.5259 25.3333 60.4859 27.04C61.4726 28.7467 61.9659 30.7333 61.9659 33C61.9659 35.2667 61.4593 37.2667 60.4459 39C59.4593 40.7067 58.1126 42.0267 56.4059 42.96C54.6993 43.8933 52.8059 44.36 50.7259 44.36ZM50.7259 41.16C52.0326 41.16 53.2593 40.8533 54.4059 40.24C55.5526 39.6267 56.4726 38.7067 57.1659 37.48C57.8859 36.2533 58.2459 34.76 58.2459 33C58.2459 31.24 57.8993 29.7467 57.2059 28.52C56.5126 27.2933 55.6059 26.3867 54.4859 25.8C53.3659 25.1867 52.1526 24.88 50.8459 24.88C49.5126 24.88 48.2859 25.1867 47.1659 25.8C46.0726 26.3867 45.1926 27.2933 44.5259 28.52C43.8593 29.7467 43.5259 31.24 43.5259 33C43.5259 34.7867 43.8459 36.2933 44.4859 37.52C45.1526 38.7467 46.0326 39.6667 47.1259 40.28C48.2193 40.8667 49.4193 41.16 50.7259 41.16ZM65.3919 32.96C65.3919 30.72 65.8452 28.76 66.7519 27.08C67.6585 25.3733 68.8985 24.0533 70.4719 23.12C72.0719 22.1867 73.8585 21.72 75.8319 21.72C77.5385 21.72 79.1252 22.12 80.5919 22.92C82.0585 23.6933 83.1785 24.72 83.9519 26V14.4H87.6319V44H83.9519V39.88C83.2319 41.1867 82.1652 42.2667 80.7519 43.12C79.3385 43.9467 77.6852 44.36 75.7919 44.36C73.8452 44.36 72.0719 43.88 70.4719 42.92C68.8985 41.96 67.6585 40.6133 66.7519 38.88C65.8452 37.1467 65.3919 35.1733 65.3919 32.96ZM83.9519 33C83.9519 31.3467 83.6185 29.9067 82.9519 28.68C82.2852 27.4533 81.3785 26.52 80.2319 25.88C79.1119 25.2133 77.8719 24.88 76.5119 24.88C75.1519 24.88 73.9119 25.2 72.7919 25.84C71.6719 26.48 70.7785 27.4133 70.1119 28.64C69.4452 29.8667 69.1119 31.3067 69.1119 32.96C69.1119 34.64 69.4452 36.1067 70.1119 37.36C70.7785 38.5867 71.6719 39.5333 72.7919 40.2C73.9119 40.84 75.1519 41.16 76.5119 41.16C77.8719 41.16 79.1119 40.84 80.2319 40.2C81.3785 39.5333 82.2852 38.5867 82.9519 37.36C83.6185 36.1067 83.9519 34.6533 83.9519 33ZM113.223 22.08V44H109.583V40.76C108.89 41.88 107.916 42.76 106.663 43.4C105.436 44.0133 104.076 44.32 102.583 44.32C100.876 44.32 99.3431 43.9733 97.9831 43.28C96.6231 42.56 95.5431 41.4933 94.7431 40.08C93.9698 38.6667 93.5831 36.9467 93.5831 34.92V22.08H97.1831V34.44C97.1831 36.6 97.7298 38.2667 98.8231 39.44C99.9165 40.5867 101.41 41.16 103.303 41.16C105.25 41.16 106.783 40.56 107.903 39.36C109.023 38.16 109.583 36.4133 109.583 34.12V22.08H113.223ZM118.009 33C118.009 30.7333 118.462 28.76 119.369 27.08C120.276 25.3733 121.529 24.0533 123.129 23.12C124.756 22.1867 126.609 21.72 128.689 21.72C131.382 21.72 133.596 22.3733 135.329 23.68C137.089 24.9867 138.249 26.8 138.809 29.12H134.889C134.516 27.7867 133.782 26.7333 132.689 25.96C131.622 25.1867 130.289 24.8 128.689 24.8C126.609 24.8 124.929 25.52 123.649 26.96C122.369 28.3733 121.729 30.3867 121.729 33C121.729 35.64 122.369 37.68 123.649 39.12C124.929 40.56 126.609 41.28 128.689 41.28C130.289 41.28 131.622 40.9067 132.689 40.16C133.756 39.4133 134.489 38.3467 134.889 36.96H138.809C138.222 39.2 137.049 41 135.289 42.36C133.529 43.6933 131.329 44.36 128.689 44.36C126.609 44.36 124.756 43.8933 123.129 42.96C121.529 42.0267 120.276 40.7067 119.369 39C118.462 37.2933 118.009 35.2933 118.009 33ZM148.106 25.08V38C148.106 39.0667 148.333 39.8267 148.786 40.28C149.239 40.7067 150.026 40.92 151.146 40.92H153.826V44H150.546C148.519 44 146.999 43.5333 145.986 42.6C144.973 41.6667 144.466 40.1333 144.466 38V25.08H141.626V22.08H144.466V16.56H148.106V22.08H153.826V25.08H148.106ZM167.796 44.36C165.743 44.36 163.876 43.8933 162.196 42.96C160.543 42.0267 159.236 40.7067 158.276 39C157.343 37.2667 156.876 35.2667 156.876 33C156.876 30.76 157.356 28.7867 158.316 27.08C159.303 25.3467 160.636 24.0267 162.316 23.12C163.996 22.1867 165.876 21.72 167.956 21.72C170.036 21.72 171.916 22.1867 173.596 23.12C175.276 24.0267 176.596 25.3333 177.556 27.04C178.543 28.7467 179.036 30.7333 179.036 33C179.036 35.2667 178.53 37.2667 177.516 39C176.53 40.7067 175.183 42.0267 173.476 42.96C171.77 43.8933 169.876 44.36 167.796 44.36ZM167.796 41.16C169.103 41.16 170.33 40.8533 171.476 40.24C172.623 39.6267 173.543 38.7067 174.236 37.48C174.956 36.2533 175.316 34.76 175.316 33C175.316 31.24 174.97 29.7467 174.276 28.52C173.583 27.2933 172.676 26.3867 171.556 25.8C170.436 25.1867 169.223 24.88 167.916 24.88C166.583 24.88 165.356 25.1867 164.236 25.8C163.143 26.3867 162.263 27.2933 161.596 28.52C160.93 29.7467 160.596 31.24 160.596 33C160.596 34.7867 160.916 36.2933 161.556 37.52C162.223 38.7467 163.103 39.6667 164.196 40.28C165.29 40.8667 166.49 41.16 167.796 41.16ZM191.582 44.36C189.902 44.36 188.396 44.08 187.062 43.52C185.729 42.9333 184.676 42.1333 183.902 41.12C183.129 40.08 182.702 38.8933 182.622 37.56H186.382C186.489 38.6533 186.996 39.5467 187.902 40.24C188.836 40.9333 190.049 41.28 191.542 41.28C192.929 41.28 194.022 40.9733 194.822 40.36C195.622 39.7467 196.022 38.9733 196.022 38.04C196.022 37.08 195.596 36.3733 194.742 35.92C193.889 35.44 192.569 34.9733 190.782 34.52C189.156 34.0933 187.822 33.6667 186.782 33.24C185.769 32.7867 184.889 32.1333 184.142 31.28C183.422 30.4 183.062 29.2533 183.062 27.84C183.062 26.72 183.396 25.6933 184.062 24.76C184.729 23.8267 185.676 23.0933 186.902 22.56C188.129 22 189.529 21.72 191.102 21.72C193.529 21.72 195.489 22.3333 196.982 23.56C198.476 24.7867 199.276 26.4667 199.382 28.6H195.742C195.662 27.4533 195.196 26.5333 194.342 25.84C193.516 25.1467 192.396 24.8 190.982 24.8C189.676 24.8 188.636 25.08 187.862 25.64C187.089 26.2 186.702 26.9333 186.702 27.84C186.702 28.56 186.929 29.16 187.382 29.64C187.862 30.0933 188.449 30.4667 189.142 30.76C189.862 31.0267 190.849 31.3333 192.102 31.68C193.676 32.1067 194.956 32.5333 195.942 32.96C196.929 33.36 197.769 33.9733 198.462 34.8C199.182 35.6267 199.556 36.7067 199.582 38.04C199.582 39.24 199.249 40.32 198.582 41.28C197.916 42.24 196.969 43 195.742 43.56C194.542 44.0933 193.156 44.36 191.582 44.36ZM214.025 32.96C214.025 30.72 214.478 28.76 215.385 27.08C216.291 25.3733 217.531 24.0533 219.105 23.12C220.705 22.1867 222.491 21.72 224.465 21.72C226.171 21.72 227.758 22.12 229.225 22.92C230.691 23.6933 231.811 24.72 232.585 26V14.4H236.265V44H232.585V39.88C231.865 41.1867 230.798 42.2667 229.385 43.12C227.971 43.9467 226.318 44.36 224.425 44.36C222.478 44.36 220.705 43.88 219.105 42.92C217.531 41.96 216.291 40.6133 215.385 38.88C214.478 37.1467 214.025 35.1733 214.025 32.96ZM232.585 33C232.585 31.3467 232.251 29.9067 231.585 28.68C230.918 27.4533 230.011 26.52 228.865 25.88C227.745 25.2133 226.505 24.88 225.145 24.88C223.785 24.88 222.545 25.2 221.425 25.84C220.305 26.48 219.411 27.4133 218.745 28.64C218.078 29.8667 217.745 31.3067 217.745 32.96C217.745 34.64 218.078 36.1067 218.745 37.36C219.411 38.5867 220.305 39.5333 221.425 40.2C222.545 40.84 223.785 41.16 225.145 41.16C226.505 41.16 227.745 40.84 228.865 40.2C230.011 39.5333 230.918 38.5867 231.585 37.36C232.251 36.1067 232.585 34.6533 232.585 33ZM262.416 32.2C262.416 32.8933 262.376 33.6267 262.296 34.4H244.776C244.909 36.56 245.643 38.2533 246.976 39.48C248.336 40.68 249.976 41.28 251.896 41.28C253.469 41.28 254.776 40.92 255.816 40.2C256.883 39.4533 257.629 38.4667 258.056 37.24H261.976C261.389 39.3467 260.216 41.0667 258.456 42.4C256.696 43.7067 254.509 44.36 251.896 44.36C249.816 44.36 247.949 43.8933 246.296 42.96C244.669 42.0267 243.389 40.7067 242.456 39C241.523 37.2667 241.056 35.2667 241.056 33C241.056 30.7333 241.509 28.7467 242.416 27.04C243.323 25.3333 244.589 24.0267 246.216 23.12C247.869 22.1867 249.763 21.72 251.896 21.72C253.976 21.72 255.816 22.1733 257.416 23.08C259.016 23.9867 260.243 25.24 261.096 26.84C261.976 28.4133 262.416 30.2 262.416 32.2ZM258.656 31.44C258.656 30.0533 258.349 28.8667 257.736 27.88C257.123 26.8667 256.283 26.1067 255.216 25.6C254.176 25.0667 253.016 24.8 251.736 24.8C249.896 24.8 248.323 25.3867 247.016 26.56C245.736 27.7333 245.003 29.36 244.816 31.44H258.656ZM281.525 14.4V44H277.885V14.4H281.525ZM286.368 32.96C286.368 30.72 286.822 28.76 287.728 27.08C288.635 25.3733 289.875 24.0533 291.448 23.12C293.048 22.1867 294.822 21.72 296.768 21.72C298.688 21.72 300.355 22.1333 301.768 22.96C303.182 23.7867 304.235 24.8267 304.928 26.08V22.08H308.608V44H304.928V39.92C304.208 41.2 303.128 42.2667 301.688 43.12C300.275 43.9467 298.622 44.36 296.728 44.36C294.782 44.36 293.022 43.88 291.448 42.92C289.875 41.96 288.635 40.6133 287.728 38.88C286.822 37.1467 286.368 35.1733 286.368 32.96ZM304.928 33C304.928 31.3467 304.595 29.9067 303.928 28.68C303.262 27.4533 302.355 26.52 301.208 25.88C300.088 25.2133 298.848 24.88 297.488 24.88C296.128 24.88 294.888 25.2 293.768 25.84C292.648 26.48 291.755 27.4133 291.088 28.64C290.422 29.8667 290.088 31.3067 290.088 32.96C290.088 34.64 290.422 36.1067 291.088 37.36C291.755 38.5867 292.648 39.5333 293.768 40.2C294.888 40.84 296.128 41.16 297.488 41.16C298.848 41.16 300.088 40.84 301.208 40.2C302.355 39.5333 303.262 38.5867 303.928 37.36C304.595 36.1067 304.928 34.6533 304.928 33ZM334.264 44.28C332.424 44.28 330.77 43.96 329.304 43.32C327.864 42.6533 326.73 41.7467 325.904 40.6C325.077 39.4267 324.65 38.08 324.624 36.56H328.504C328.637 37.8667 329.17 38.9733 330.104 39.88C331.064 40.76 332.45 41.2 334.264 41.2C335.997 41.2 337.357 40.7733 338.344 39.92C339.357 39.04 339.864 37.92 339.864 36.56C339.864 35.4933 339.57 34.6267 338.984 33.96C338.397 33.2933 337.664 32.7867 336.784 32.44C335.904 32.0933 334.717 31.72 333.224 31.32C331.384 30.84 329.904 30.36 328.784 29.88C327.69 29.4 326.744 28.6533 325.944 27.64C325.17 26.6 324.784 25.2133 324.784 23.48C324.784 21.96 325.17 20.6133 325.944 19.44C326.717 18.2667 327.797 17.36 329.184 16.72C330.597 16.08 332.21 15.76 334.024 15.76C336.637 15.76 338.77 16.4133 340.424 17.72C342.104 19.0267 343.05 20.76 343.264 22.92H339.264C339.13 21.8533 338.57 20.92 337.584 20.12C336.597 19.2933 335.29 18.88 333.664 18.88C332.144 18.88 330.904 19.28 329.944 20.08C328.984 20.8533 328.504 21.9467 328.504 23.36C328.504 24.3733 328.784 25.2 329.344 25.84C329.93 26.48 330.637 26.9733 331.464 27.32C332.317 27.64 333.504 28.0133 335.024 28.44C336.864 28.9467 338.344 29.4533 339.464 29.96C340.584 30.44 341.544 31.2 342.344 32.24C343.144 33.2533 343.544 34.64 343.544 36.4C343.544 37.76 343.184 39.04 342.464 40.24C341.744 41.44 340.677 42.4133 339.264 43.16C337.85 43.9067 336.184 44.28 334.264 44.28ZM368.9 32.2C368.9 32.8933 368.86 33.6267 368.78 34.4H351.26C351.394 36.56 352.127 38.2533 353.46 39.48C354.82 40.68 356.46 41.28 358.38 41.28C359.954 41.28 361.26 40.92 362.3 40.2C363.367 39.4533 364.114 38.4667 364.54 37.24H368.46C367.874 39.3467 366.7 41.0667 364.94 42.4C363.18 43.7067 360.994 44.36 358.38 44.36C356.3 44.36 354.434 43.8933 352.78 42.96C351.154 42.0267 349.874 40.7067 348.94 39C348.007 37.2667 347.54 35.2667 347.54 33C347.54 30.7333 347.994 28.7467 348.9 27.04C349.807 25.3333 351.074 24.0267 352.7 23.12C354.354 22.1867 356.247 21.72 358.38 21.72C360.46 21.72 362.3 22.1733 363.9 23.08C365.5 23.9867 366.727 25.24 367.58 26.84C368.46 28.4133 368.9 30.2 368.9 32.2ZM365.14 31.44C365.14 30.0533 364.834 28.8667 364.22 27.88C363.607 26.8667 362.767 26.1067 361.7 25.6C360.66 25.0667 359.5 24.8 358.22 24.8C356.38 24.8 354.807 25.3867 353.5 26.56C352.22 27.7333 351.487 29.36 351.3 31.44H365.14ZM372.345 33C372.345 30.7333 372.798 28.76 373.705 27.08C374.612 25.3733 375.865 24.0533 377.465 23.12C379.092 22.1867 380.945 21.72 383.025 21.72C385.718 21.72 387.932 22.3733 389.665 23.68C391.425 24.9867 392.585 26.8 393.145 29.12H389.225C388.852 27.7867 388.118 26.7333 387.025 25.96C385.958 25.1867 384.625 24.8 383.025 24.8C380.945 24.8 379.265 25.52 377.985 26.96C376.705 28.3733 376.065 30.3867 376.065 33C376.065 35.64 376.705 37.68 377.985 39.12C379.265 40.56 380.945 41.28 383.025 41.28C384.625 41.28 385.958 40.9067 387.025 40.16C388.092 39.4133 388.825 38.3467 389.225 36.96H393.145C392.558 39.2 391.385 41 389.625 42.36C387.865 43.6933 385.665 44.36 383.025 44.36C380.945 44.36 379.092 43.8933 377.465 42.96C375.865 42.0267 374.612 40.7067 373.705 39C372.798 37.2933 372.345 35.2933 372.345 33ZM396.642 33C396.642 30.7333 397.095 28.76 398.002 27.08C398.909 25.3733 400.162 24.0533 401.762 23.12C403.389 22.1867 405.242 21.72 407.322 21.72C410.015 21.72 412.229 22.3733 413.962 23.68C415.722 24.9867 416.882 26.8 417.442 29.12H413.522C413.149 27.7867 412.415 26.7333 411.322 25.96C410.255 25.1867 408.922 24.8 407.322 24.8C405.242 24.8 403.562 25.52 402.282 26.96C401.002 28.3733 400.362 30.3867 400.362 33C400.362 35.64 401.002 37.68 402.282 39.12C403.562 40.56 405.242 41.28 407.322 41.28C408.922 41.28 410.255 40.9067 411.322 40.16C412.389 39.4133 413.122 38.3467 413.522 36.96H417.442C416.855 39.2 415.682 41 413.922 42.36C412.162 43.6933 409.962 44.36 407.322 44.36C405.242 44.36 403.389 43.8933 401.762 42.96C400.162 42.0267 398.909 40.7067 398.002 39C397.095 37.2933 396.642 35.2933 396.642 33ZM424.179 18.52C423.485 18.52 422.899 18.28 422.419 17.8C421.939 17.32 421.699 16.7333 421.699 16.04C421.699 15.3467 421.939 14.76 422.419 14.28C422.899 13.8 423.485 13.56 424.179 13.56C424.845 13.56 425.405 13.8 425.859 14.28C426.339 14.76 426.579 15.3467 426.579 16.04C426.579 16.7333 426.339 17.32 425.859 17.8C425.405 18.28 424.845 18.52 424.179 18.52ZM425.939 22.08V44H422.299V22.08H425.939ZM441.703 44.36C439.649 44.36 437.783 43.8933 436.103 42.96C434.449 42.0267 433.143 40.7067 432.183 39C431.249 37.2667 430.783 35.2667 430.783 33C430.783 30.76 431.263 28.7867 432.223 27.08C433.209 25.3467 434.543 24.0267 436.223 23.12C437.903 22.1867 439.783 21.72 441.863 21.72C443.943 21.72 445.823 22.1867 447.503 23.12C449.183 24.0267 450.503 25.3333 451.463 27.04C452.449 28.7467 452.943 30.7333 452.943 33C452.943 35.2667 452.436 37.2667 451.423 39C450.436 40.7067 449.089 42.0267 447.383 42.96C445.676 43.8933 443.783 44.36 441.703 44.36ZM441.703 41.16C443.009 41.16 444.236 40.8533 445.383 40.24C446.529 39.6267 447.449 38.7067 448.143 37.48C448.863 36.2533 449.223 34.76 449.223 33C449.223 31.24 448.876 29.7467 448.183 28.52C447.489 27.2933 446.583 26.3867 445.463 25.8C444.343 25.1867 443.129 24.88 441.823 24.88C440.489 24.88 439.263 25.1867 438.143 25.8C437.049 26.3867 436.169 27.2933 435.503 28.52C434.836 29.7467 434.503 31.24 434.503 33C434.503 34.7867 434.823 36.2933 435.463 37.52C436.129 38.7467 437.009 39.6667 438.103 40.28C439.196 40.8667 440.396 41.16 441.703 41.16ZM468.408 21.68C471.075 21.68 473.235 22.4933 474.888 24.12C476.542 25.72 477.368 28.04 477.368 31.08V44H473.768V31.6C473.768 29.4133 473.222 27.7467 472.128 26.6C471.035 25.4267 469.542 24.84 467.648 24.84C465.728 24.84 464.195 25.44 463.048 26.64C461.928 27.84 461.368 29.5867 461.368 31.88V44H457.728V22.08H461.368V25.2C462.088 24.08 463.062 23.2133 464.288 22.6C465.542 21.9867 466.915 21.68 468.408 21.68ZM492.618 32.96C492.618 30.72 493.072 28.76 493.978 27.08C494.885 25.3733 496.125 24.0533 497.698 23.12C499.298 22.1867 501.085 21.72 503.058 21.72C504.765 21.72 506.352 22.12 507.818 22.92C509.285 23.6933 510.405 24.72 511.178 26V14.4H514.858V44H511.178V39.88C510.458 41.1867 509.392 42.2667 507.978 43.12C506.565 43.9467 504.912 44.36 503.018 44.36C501.072 44.36 499.298 43.88 497.698 42.92C496.125 41.96 494.885 40.6133 493.978 38.88C493.072 37.1467 492.618 35.1733 492.618 32.96ZM511.178 33C511.178 31.3467 510.845 29.9067 510.178 28.68C509.512 27.4533 508.605 26.52 507.458 25.88C506.338 25.2133 505.098 24.88 503.738 24.88C502.378 24.88 501.138 25.2 500.018 25.84C498.898 26.48 498.005 27.4133 497.338 28.64C496.672 29.8667 496.338 31.3067 496.338 32.96C496.338 34.64 496.672 36.1067 497.338 37.36C498.005 38.5867 498.898 39.5333 500.018 40.2C501.138 40.84 502.378 41.16 503.738 41.16C505.098 41.16 506.338 40.84 507.458 40.2C508.605 39.5333 509.512 38.5867 510.178 37.36C510.845 36.1067 511.178 34.6533 511.178 33ZM541.01 32.2C541.01 32.8933 540.97 33.6267 540.89 34.4H523.37C523.503 36.56 524.236 38.2533 525.57 39.48C526.93 40.68 528.57 41.28 530.49 41.28C532.063 41.28 533.37 40.92 534.41 40.2C535.476 39.4533 536.223 38.4667 536.65 37.24H540.57C539.983 39.3467 538.81 41.0667 537.05 42.4C535.29 43.7067 533.103 44.36 530.49 44.36C528.41 44.36 526.543 43.8933 524.89 42.96C523.263 42.0267 521.983 40.7067 521.05 39C520.116 37.2667 519.65 35.2667 519.65 33C519.65 30.7333 520.103 28.7467 521.01 27.04C521.916 25.3333 523.183 24.0267 524.81 23.12C526.463 22.1867 528.356 21.72 530.49 21.72C532.57 21.72 534.41 22.1733 536.01 23.08C537.61 23.9867 538.836 25.24 539.69 26.84C540.57 28.4133 541.01 30.2 541.01 32.2ZM537.25 31.44C537.25 30.0533 536.943 28.8667 536.33 27.88C535.716 26.8667 534.876 26.1067 533.81 25.6C532.77 25.0667 531.61 24.8 530.33 24.8C528.49 24.8 526.916 25.3867 525.61 26.56C524.33 27.7333 523.596 29.36 523.41 31.44H537.25ZM565.158 16.12C568.198 16.12 570.825 16.6933 573.038 17.84C575.278 18.96 576.985 20.5733 578.158 22.68C579.358 24.7867 579.958 27.2667 579.958 30.12C579.958 32.9733 579.358 35.4533 578.158 37.56C576.985 39.64 575.278 41.24 573.038 42.36C570.825 43.4533 568.198 44 565.158 44H556.478V16.12H565.158ZM565.158 41C568.758 41 571.505 40.0533 573.398 38.16C575.292 36.24 576.238 33.56 576.238 30.12C576.238 26.6533 575.278 23.9467 573.358 22C571.465 20.0533 568.732 19.08 565.158 19.08H560.118V41H565.158ZM604.2 22.08V44H600.56V40.76C599.866 41.88 598.893 42.76 597.64 43.4C596.413 44.0133 595.053 44.32 593.56 44.32C591.853 44.32 590.32 43.9733 588.96 43.28C587.6 42.56 586.52 41.4933 585.72 40.08C584.946 38.6667 584.56 36.9467 584.56 34.92V22.08H588.16V34.44C588.16 36.6 588.706 38.2667 589.8 39.44C590.893 40.5867 592.386 41.16 594.28 41.16C596.226 41.16 597.76 40.56 598.88 39.36C600 38.16 600.56 36.4133 600.56 34.12V22.08H604.2ZM613.986 14.4V44H610.346V14.4H613.986ZM618.829 33C618.829 30.7333 619.283 28.76 620.189 27.08C621.096 25.3733 622.349 24.0533 623.949 23.12C625.576 22.1867 627.429 21.72 629.509 21.72C632.203 21.72 634.416 22.3733 636.149 23.68C637.909 24.9867 639.069 26.8 639.629 29.12H635.709C635.336 27.7867 634.603 26.7333 633.509 25.96C632.443 25.1867 631.109 24.8 629.509 24.8C627.429 24.8 625.749 25.52 624.469 26.96C623.189 28.3733 622.549 30.3867 622.549 33C622.549 35.64 623.189 37.68 624.469 39.12C625.749 40.56 627.429 41.28 629.509 41.28C631.109 41.28 632.443 40.9067 633.509 40.16C634.576 39.4133 635.309 38.3467 635.709 36.96H639.629C639.043 39.2 637.869 41 636.109 42.36C634.349 43.6933 632.149 44.36 629.509 44.36C627.429 44.36 625.576 43.8933 623.949 42.96C622.349 42.0267 621.096 40.7067 620.189 39C619.283 37.2933 618.829 35.2933 618.829 33ZM664.486 32.2C664.486 32.8933 664.446 33.6267 664.366 34.4H646.846C646.98 36.56 647.713 38.2533 649.046 39.48C650.406 40.68 652.046 41.28 653.966 41.28C655.54 41.28 656.846 40.92 657.886 40.2C658.953 39.4533 659.7 38.4667 660.126 37.24H664.046C663.46 39.3467 662.286 41.0667 660.526 42.4C658.766 43.7067 656.58 44.36 653.966 44.36C651.886 44.36 650.02 43.8933 648.366 42.96C646.74 42.0267 645.46 40.7067 644.526 39C643.593 37.2667 643.126 35.2667 643.126 33C643.126 30.7333 643.58 28.7467 644.486 27.04C645.393 25.3333 646.66 24.0267 648.286 23.12C649.94 22.1867 651.833 21.72 653.966 21.72C656.046 21.72 657.886 22.1733 659.486 23.08C661.086 23.9867 662.313 25.24 663.166 26.84C664.046 28.4133 664.486 30.2 664.486 32.2ZM660.726 31.44C660.726 30.0533 660.42 28.8667 659.806 27.88C659.193 26.8667 658.353 26.1067 657.286 25.6C656.246 25.0667 655.086 24.8 653.806 24.8C651.966 24.8 650.393 25.3867 649.086 26.56C647.806 27.7333 647.073 29.36 646.886 31.44H660.726ZM672.931 25.64C673.571 24.3867 674.478 23.4133 675.651 22.72C676.851 22.0267 678.304 21.68 680.011 21.68V25.44H679.051C674.971 25.44 672.931 27.6533 672.931 32.08V44H669.291V22.08H672.931V25.64ZM686.093 18.52C685.399 18.52 684.813 18.28 684.333 17.8C683.853 17.32 683.613 16.7333 683.613 16.04C683.613 15.3467 683.853 14.76 684.333 14.28C684.813 13.8 685.399 13.56 686.093 13.56C686.759 13.56 687.319 13.8 687.773 14.28C688.253 14.76 688.493 15.3467 688.493 16.04C688.493 16.7333 688.253 17.32 687.773 17.8C687.319 18.28 686.759 18.52 686.093 18.52ZM687.853 22.08V44H684.213V22.08H687.853ZM692.697 32.96C692.697 30.72 693.15 28.76 694.057 27.08C694.963 25.3733 696.203 24.0533 697.777 23.12C699.377 22.1867 701.15 21.72 703.097 21.72C705.017 21.72 706.683 22.1333 708.097 22.96C709.51 23.7867 710.563 24.8267 711.257 26.08V22.08H714.937V44H711.257V39.92C710.537 41.2 709.457 42.2667 708.017 43.12C706.603 43.9467 704.95 44.36 703.057 44.36C701.11 44.36 699.35 43.88 697.777 42.92C696.203 41.96 694.963 40.6133 694.057 38.88C693.15 37.1467 692.697 35.1733 692.697 32.96ZM711.257 33C711.257 31.3467 710.923 29.9067 710.257 28.68C709.59 27.4533 708.683 26.52 707.537 25.88C706.417 25.2133 705.177 24.88 703.817 24.88C702.457 24.88 701.217 25.2 700.097 25.84C698.977 26.48 698.083 27.4133 697.417 28.64C696.75 29.8667 696.417 31.3067 696.417 32.96C696.417 34.64 696.75 36.1067 697.417 37.36C698.083 38.5867 698.977 39.5333 700.097 40.2C701.217 40.84 702.457 41.16 703.817 41.16C705.177 41.16 706.417 40.84 707.537 40.2C708.683 39.5333 709.59 38.5867 710.257 37.36C710.923 36.1067 711.257 34.6533 711.257 33Z" fill="#616161"/>
<line x1="2.97174" y1="48.9941" x2="200.972" y2="49.0059" stroke="#D69A4D" stroke-width="2"/>
</svg>
