<svg width="328" height="74" viewBox="0 0 328 74" fill="none" xmlns="http://www.w3.org/2000/svg">
<path d="M36.7568 6.33616V15.1042H24.8528V51.2642H13.9088V15.1042H2.00475V6.33616H36.7568ZM77.5133 15.5522V51.2642H66.5693V46.4002C65.4599 47.9788 63.9453 49.2588 62.0253 50.2402C60.1479 51.1788 58.0573 51.6482 55.7533 51.6482C53.0226 51.6482 50.6119 51.0508 48.5213 49.8562C46.4306 48.6188 44.8093 46.8482 43.6573 44.5442C42.5053 42.2402 41.9293 39.5308 41.9293 36.4162V15.5522H52.8093V34.9442C52.8093 37.3335 53.4279 39.1895 54.6653 40.5122C55.9026 41.8348 57.5666 42.4962 59.6573 42.4962C61.7906 42.4962 63.4759 41.8348 64.7133 40.5122C65.9506 39.1895 66.5693 37.3335 66.5693 34.9442V15.5522H77.5133ZM97.0807 28.7362C97.0807 24.2988 98.0408 20.3522 99.9608 16.8962C101.881 13.3975 104.547 10.6882 107.961 8.76816C111.417 6.80549 115.321 5.82416 119.673 5.82416C125.006 5.82416 129.571 7.23216 133.369 10.0482C137.166 12.8642 139.705 16.7042 140.985 21.5682H128.953C128.057 19.6908 126.777 18.2615 125.113 17.2802C123.491 16.2988 121.635 15.8082 119.545 15.8082C116.174 15.8082 113.443 16.9815 111.353 19.3282C109.262 21.6748 108.217 24.8108 108.217 28.7362C108.217 32.6615 109.262 35.7975 111.353 38.1442C113.443 40.4908 116.174 41.6642 119.545 41.6642C121.635 41.6642 123.491 41.1735 125.113 40.1922C126.777 39.2108 128.057 37.7815 128.953 35.9042H140.985C139.705 40.7682 137.166 44.6082 133.369 47.4242C129.571 50.1975 125.006 51.5842 119.673 51.5842C115.321 51.5842 111.417 50.6242 107.961 48.7042C104.547 46.7415 101.881 44.0322 99.9608 40.5762C98.0408 37.1202 97.0807 33.1735 97.0807 28.7362ZM145.511 33.3442C145.511 29.6748 146.193 26.4535 147.559 23.6802C148.967 20.9068 150.865 18.7735 153.255 17.2802C155.644 15.7868 158.311 15.0402 161.255 15.0402C163.772 15.0402 165.969 15.5522 167.847 16.5762C169.767 17.6002 171.239 18.9442 172.263 20.6082V15.5522H183.207V51.2642H172.263V46.2082C171.196 47.8722 169.703 49.2162 167.783 50.2402C165.905 51.2642 163.708 51.7762 161.191 51.7762C158.289 51.7762 155.644 51.0295 153.255 49.5362C150.865 48.0002 148.967 45.8455 147.559 43.0722C146.193 40.2562 145.511 37.0135 145.511 33.3442ZM172.263 33.4082C172.263 30.6775 171.495 28.5228 169.959 26.9442C168.465 25.3655 166.631 24.5762 164.455 24.5762C162.279 24.5762 160.423 25.3655 158.887 26.9442C157.393 28.4802 156.647 30.6135 156.647 33.3442C156.647 36.0748 157.393 38.2508 158.887 39.8722C160.423 41.4508 162.279 42.2402 164.455 42.2402C166.631 42.2402 168.465 41.4508 169.959 39.8722C171.495 38.2935 172.263 36.1388 172.263 33.4082ZM202.068 21.5042C203.348 19.5415 204.948 18.0055 206.868 16.8962C208.788 15.7442 210.922 15.1682 213.268 15.1682V26.7522H210.26C207.53 26.7522 205.482 27.3495 204.116 28.5442C202.751 29.6962 202.068 31.7442 202.068 34.6882V51.2642H191.124V15.5522H202.068V21.5042ZM229.443 21.5042C230.723 19.5415 232.323 18.0055 234.243 16.8962C236.163 15.7442 238.297 15.1682 240.643 15.1682V26.7522H237.635C234.905 26.7522 232.857 27.3495 231.491 28.5442C230.126 29.6962 229.443 31.7442 229.443 34.6882V51.2642H218.499V15.5522H229.443V21.5042ZM251.378 11.8402C249.458 11.8402 247.88 11.2855 246.642 10.1762C245.448 9.02416 244.85 7.61616 244.85 5.95216C244.85 4.24549 245.448 2.83749 246.642 1.72816C247.88 0.576157 249.458 0.000156403 251.378 0.000156403C253.256 0.000156403 254.792 0.576157 255.986 1.72816C257.224 2.83749 257.842 4.24549 257.842 5.95216C257.842 7.61616 257.224 9.02416 255.986 10.1762C254.792 11.2855 253.256 11.8402 251.378 11.8402ZM256.818 15.5522V51.2642H245.874V15.5522H256.818ZM284.653 41.9842V51.2642H279.085C275.117 51.2642 272.024 50.3042 269.805 48.3842C267.587 46.4215 266.477 43.2428 266.477 38.8482V24.6402H262.125V15.5522H266.477V6.84816H277.421V15.5522H284.589V24.6402H277.421V38.9762C277.421 40.0428 277.677 40.8108 278.189 41.2802C278.701 41.7495 279.555 41.9842 280.749 41.9842H284.653ZM307.005 51.7762C303.507 51.7762 300.349 51.0295 297.533 49.5362C294.76 48.0428 292.563 45.9095 290.941 43.1362C289.363 40.3628 288.573 37.1202 288.573 33.4082C288.573 29.7388 289.384 26.5175 291.005 23.7442C292.627 20.9282 294.845 18.7735 297.661 17.2802C300.477 15.7868 303.635 15.0402 307.133 15.0402C310.632 15.0402 313.789 15.7868 316.605 17.2802C319.421 18.7735 321.64 20.9282 323.261 23.7442C324.883 26.5175 325.693 29.7388 325.693 33.4082C325.693 37.0775 324.861 40.3202 323.197 43.1362C321.576 45.9095 319.336 48.0428 316.477 49.5362C313.661 51.0295 310.504 51.7762 307.005 51.7762ZM307.005 42.3042C309.096 42.3042 310.867 41.5362 312.317 40.0002C313.811 38.4642 314.557 36.2668 314.557 33.4082C314.557 30.5495 313.832 28.3522 312.381 26.8162C310.973 25.2802 309.224 24.5122 307.133 24.5122C305 24.5122 303.229 25.2802 301.821 26.8162C300.413 28.3095 299.709 30.5068 299.709 33.4082C299.709 36.2668 300.392 38.4642 301.757 40.0002C303.165 41.5362 304.915 42.3042 307.005 42.3042Z" fill="#616161"/>
<line y1="70.7642" x2="89" y2="70.7642" stroke="#8E0F19" stroke-width="5"/>
</svg>
