<svg width="452" height="62" viewBox="0 0 452 62" fill="none" xmlns="http://www.w3.org/2000/svg">
<path d="M30.852 14.728V40H24.696V24.844L19.044 40H14.076L8.388 24.808V40H2.232V14.728H9.504L16.596 32.224L23.616 14.728H30.852ZM54.2149 29.632C54.2149 30.208 54.1789 30.808 54.1069 31.432H40.1749C40.2709 32.68 40.6669 33.64 41.3629 34.312C42.0829 34.96 42.9589 35.284 43.9909 35.284C45.5269 35.284 46.5949 34.636 47.1949 33.34H53.7469C53.4109 34.66 52.7989 35.848 51.9109 36.904C51.0469 37.96 49.9549 38.788 48.6349 39.388C47.3149 39.988 45.8389 40.288 44.2069 40.288C42.2389 40.288 40.4869 39.868 38.9509 39.028C37.4149 38.188 36.2149 36.988 35.3509 35.428C34.4869 33.868 34.0549 32.044 34.0549 29.956C34.0549 27.868 34.4749 26.044 35.3149 24.484C36.1789 22.924 37.3789 21.724 38.9149 20.884C40.4509 20.044 42.2149 19.624 44.2069 19.624C46.1509 19.624 47.8789 20.032 49.3909 20.848C50.9029 21.664 52.0789 22.828 52.9189 24.34C53.7829 25.852 54.2149 27.616 54.2149 29.632ZM47.9149 28.012C47.9149 26.956 47.5549 26.116 46.8349 25.492C46.1149 24.868 45.2149 24.556 44.1349 24.556C43.1029 24.556 42.2269 24.856 41.5069 25.456C40.8109 26.056 40.3789 26.908 40.2109 28.012H47.9149ZM56.2385 29.92C56.2385 27.856 56.6225 26.044 57.3905 24.484C58.1825 22.924 59.2505 21.724 60.5945 20.884C61.9385 20.044 63.4385 19.624 65.0945 19.624C66.4145 19.624 67.6145 19.9 68.6945 20.452C69.7985 21.004 70.6625 21.748 71.2865 22.684V13.36H77.4425V40H71.2865V37.12C70.7105 38.08 69.8825 38.848 68.8025 39.424C67.7465 40 66.5105 40.288 65.0945 40.288C63.4385 40.288 61.9385 39.868 60.5945 39.028C59.2505 38.164 58.1825 36.952 57.3905 35.392C56.6225 33.808 56.2385 31.984 56.2385 29.92ZM71.2865 29.956C71.2865 28.42 70.8545 27.208 69.9905 26.32C69.1505 25.432 68.1185 24.988 66.8945 24.988C65.6705 24.988 64.6265 25.432 63.7625 26.32C62.9225 27.184 62.5025 28.384 62.5025 29.92C62.5025 31.456 62.9225 32.68 63.7625 33.592C64.6265 34.48 65.6705 34.924 66.8945 34.924C68.1185 34.924 69.1505 34.48 69.9905 33.592C70.8545 32.704 71.2865 31.492 71.2865 29.956ZM84.9921 17.824C83.9121 17.824 83.0241 17.512 82.3281 16.888C81.6561 16.24 81.3201 15.448 81.3201 14.512C81.3201 13.552 81.6561 12.76 82.3281 12.136C83.0241 11.488 83.9121 11.164 84.9921 11.164C86.0481 11.164 86.9121 11.488 87.5841 12.136C88.2801 12.76 88.6281 13.552 88.6281 14.512C88.6281 15.448 88.2801 16.24 87.5841 16.888C86.9121 17.512 86.0481 17.824 84.9921 17.824ZM88.0521 19.912V40H81.8961V19.912H88.0521ZM101.657 40.288C99.6893 40.288 97.9133 39.868 96.3293 39.028C94.7693 38.188 93.5333 36.988 92.6213 35.428C91.7333 33.868 91.2893 32.044 91.2893 29.956C91.2893 27.892 91.7453 26.08 92.6572 24.52C93.5693 22.936 94.8173 21.724 96.4013 20.884C97.9853 20.044 99.7613 19.624 101.729 19.624C103.697 19.624 105.473 20.044 107.057 20.884C108.641 21.724 109.889 22.936 110.801 24.52C111.713 26.08 112.169 27.892 112.169 29.956C112.169 32.02 111.701 33.844 110.765 35.428C109.853 36.988 108.593 38.188 106.985 39.028C105.401 39.868 103.625 40.288 101.657 40.288ZM101.657 34.96C102.833 34.96 103.829 34.528 104.645 33.664C105.485 32.8 105.905 31.564 105.905 29.956C105.905 28.348 105.497 27.112 104.681 26.248C103.889 25.384 102.905 24.952 101.729 24.952C100.529 24.952 99.5333 25.384 98.7413 26.248C97.9493 27.088 97.5533 28.324 97.5533 29.956C97.5533 31.564 97.9373 32.8 98.7053 33.664C99.4973 34.528 100.481 34.96 101.657 34.96ZM121.84 29.92C121.84 27.856 122.224 26.044 122.992 24.484C123.784 22.924 124.852 21.724 126.196 20.884C127.54 20.044 129.04 19.624 130.696 19.624C132.016 19.624 133.216 19.9 134.296 20.452C135.4 21.004 136.264 21.748 136.888 22.684V13.36H143.044V40H136.888V37.12C136.312 38.08 135.484 38.848 134.404 39.424C133.348 40 132.112 40.288 130.696 40.288C129.04 40.288 127.54 39.868 126.196 39.028C124.852 38.164 123.784 36.952 122.992 35.392C122.224 33.808 121.84 31.984 121.84 29.92ZM136.888 29.956C136.888 28.42 136.456 27.208 135.592 26.32C134.752 25.432 133.72 24.988 132.496 24.988C131.272 24.988 130.228 25.432 129.364 26.32C128.524 27.184 128.104 28.384 128.104 29.92C128.104 31.456 128.524 32.68 129.364 33.592C130.228 34.48 131.272 34.924 132.496 34.924C133.72 34.924 134.752 34.48 135.592 33.592C136.456 32.704 136.888 31.492 136.888 29.956ZM166.434 29.632C166.434 30.208 166.398 30.808 166.326 31.432H152.394C152.49 32.68 152.886 33.64 153.582 34.312C154.302 34.96 155.178 35.284 156.21 35.284C157.746 35.284 158.814 34.636 159.414 33.34H165.966C165.63 34.66 165.018 35.848 164.13 36.904C163.266 37.96 162.174 38.788 160.854 39.388C159.534 39.988 158.058 40.288 156.426 40.288C154.458 40.288 152.706 39.868 151.17 39.028C149.634 38.188 148.434 36.988 147.57 35.428C146.706 33.868 146.274 32.044 146.274 29.956C146.274 27.868 146.694 26.044 147.534 24.484C148.398 22.924 149.598 21.724 151.134 20.884C152.67 20.044 154.434 19.624 156.426 19.624C158.37 19.624 160.098 20.032 161.61 20.848C163.122 21.664 164.298 22.828 165.138 24.34C166.002 25.852 166.434 27.616 166.434 29.632ZM160.134 28.012C160.134 26.956 159.774 26.116 159.054 25.492C158.334 24.868 157.434 24.556 156.354 24.556C155.322 24.556 154.446 24.856 153.726 25.456C153.03 26.056 152.598 26.908 152.43 28.012H160.134ZM183.466 22.756C184.066 21.82 184.894 21.064 185.95 20.488C187.006 19.912 188.242 19.624 189.658 19.624C191.314 19.624 192.814 20.044 194.158 20.884C195.502 21.724 196.558 22.924 197.326 24.484C198.118 26.044 198.514 27.856 198.514 29.92C198.514 31.984 198.118 33.808 197.326 35.392C196.558 36.952 195.502 38.164 194.158 39.028C192.814 39.868 191.314 40.288 189.658 40.288C188.266 40.288 187.03 40 185.95 39.424C184.894 38.848 184.066 38.104 183.466 37.192V49.576H177.31V19.912H183.466V22.756ZM192.25 29.92C192.25 28.384 191.818 27.184 190.954 26.32C190.114 25.432 189.07 24.988 187.822 24.988C186.598 24.988 185.554 25.432 184.69 26.32C183.85 27.208 183.43 28.42 183.43 29.956C183.43 31.492 183.85 32.704 184.69 33.592C185.554 34.48 186.598 34.924 187.822 34.924C189.046 34.924 190.09 34.48 190.954 33.592C191.818 32.68 192.25 31.456 192.25 29.92ZM200.52 29.92C200.52 27.856 200.904 26.044 201.672 24.484C202.464 22.924 203.532 21.724 204.876 20.884C206.22 20.044 207.72 19.624 209.376 19.624C210.792 19.624 212.028 19.912 213.084 20.488C214.164 21.064 214.992 21.82 215.568 22.756V19.912H221.724V40H215.568V37.156C214.968 38.092 214.128 38.848 213.048 39.424C211.992 40 210.756 40.288 209.34 40.288C207.708 40.288 206.22 39.868 204.876 39.028C203.532 38.164 202.464 36.952 201.672 35.392C200.904 33.808 200.52 31.984 200.52 29.92ZM215.568 29.956C215.568 28.42 215.136 27.208 214.272 26.32C213.432 25.432 212.4 24.988 211.176 24.988C209.952 24.988 208.908 25.432 208.044 26.32C207.204 27.184 206.784 28.384 206.784 29.92C206.784 31.456 207.204 32.68 208.044 33.592C208.908 34.48 209.952 34.924 211.176 34.924C212.4 34.924 213.432 34.48 214.272 33.592C215.136 32.704 215.568 31.492 215.568 29.956ZM233.809 19.624C235.225 19.624 236.461 19.912 237.517 20.488C238.597 21.064 239.425 21.82 240.001 22.756V19.912H246.157V39.964C246.157 41.812 245.785 43.48 245.041 44.968C244.321 46.48 243.205 47.68 241.693 48.568C240.205 49.456 238.345 49.9 236.113 49.9C233.137 49.9 230.725 49.192 228.877 47.776C227.029 46.384 225.973 44.488 225.709 42.088H231.793C231.985 42.856 232.441 43.456 233.161 43.888C233.881 44.344 234.769 44.572 235.825 44.572C237.097 44.572 238.105 44.2 238.849 43.456C239.617 42.736 240.001 41.572 240.001 39.964V37.12C239.401 38.056 238.573 38.824 237.517 39.424C236.461 40 235.225 40.288 233.809 40.288C232.153 40.288 230.653 39.868 229.309 39.028C227.965 38.164 226.897 36.952 226.105 35.392C225.337 33.808 224.953 31.984 224.953 29.92C224.953 27.856 225.337 26.044 226.105 24.484C226.897 22.924 227.965 21.724 229.309 20.884C230.653 20.044 232.153 19.624 233.809 19.624ZM240.001 29.956C240.001 28.42 239.569 27.208 238.705 26.32C237.865 25.432 236.833 24.988 235.609 24.988C234.385 24.988 233.341 25.432 232.477 26.32C231.637 27.184 231.217 28.384 231.217 29.92C231.217 31.456 231.637 32.68 232.477 33.592C233.341 34.48 234.385 34.924 235.609 34.924C236.833 34.924 237.865 34.48 238.705 33.592C239.569 32.704 240.001 31.492 240.001 29.956ZM259.755 40.288C257.787 40.288 256.011 39.868 254.427 39.028C252.867 38.188 251.631 36.988 250.719 35.428C249.831 33.868 249.387 32.044 249.387 29.956C249.387 27.892 249.843 26.08 250.755 24.52C251.667 22.936 252.915 21.724 254.499 20.884C256.083 20.044 257.859 19.624 259.827 19.624C261.795 19.624 263.571 20.044 265.155 20.884C266.739 21.724 267.987 22.936 268.899 24.52C269.811 26.08 270.267 27.892 270.267 29.956C270.267 32.02 269.799 33.844 268.863 35.428C267.951 36.988 266.691 38.188 265.083 39.028C263.499 39.868 261.723 40.288 259.755 40.288ZM259.755 34.96C260.931 34.96 261.927 34.528 262.743 33.664C263.583 32.8 264.003 31.564 264.003 29.956C264.003 28.348 263.595 27.112 262.779 26.248C261.987 25.384 261.003 24.952 259.827 24.952C258.627 24.952 257.631 25.384 256.839 26.248C256.047 27.088 255.651 28.324 255.651 29.956C255.651 31.564 256.035 32.8 256.803 33.664C257.595 34.528 258.579 34.96 259.755 34.96ZM276.413 40.288C275.333 40.288 274.445 39.976 273.749 39.352C273.077 38.704 272.741 37.912 272.741 36.976C272.741 36.016 273.077 35.212 273.749 34.564C274.445 33.916 275.333 33.592 276.413 33.592C277.469 33.592 278.333 33.916 279.005 34.564C279.701 35.212 280.049 36.016 280.049 36.976C280.049 37.912 279.701 38.704 279.005 39.352C278.333 39.976 277.469 40.288 276.413 40.288ZM276.413 25.636C275.333 25.636 274.445 25.324 273.749 24.7C273.077 24.052 272.741 23.26 272.741 22.324C272.741 21.364 273.077 20.56 273.749 19.912C274.445 19.264 275.333 18.94 276.413 18.94C277.469 18.94 278.333 19.264 279.005 19.912C279.701 20.56 280.049 21.364 280.049 22.324C280.049 23.26 279.701 24.052 279.005 24.7C278.333 25.324 277.469 25.636 276.413 25.636Z" fill="#041B55"/>
<path d="M3 59.5H113" stroke="#014FAA" stroke-width="5"/>
</svg>
