<svg width="37" height="37" viewBox="0 0 37 37" fill="none" xmlns="http://www.w3.org/2000/svg">
<path d="M1.80049 33.3673C1.29035 33.3673 0.863033 33.1951 0.51854 32.8506C0.174047 32.5062 0.00120032 32.0804 0 31.5733V20.8097C0 20.3014 0.172847 19.8757 0.51854 19.5324C0.864234 19.1892 1.29155 19.017 1.80049 19.0158H12.6034C13.1135 19.0158 13.5415 19.188 13.8872 19.5324C14.2328 19.8768 14.4051 20.3026 14.4039 20.8097V31.5733C14.4039 32.0816 14.231 32.508 13.8854 32.8524C13.5397 33.1968 13.1123 33.3685 12.6034 33.3673H1.80049ZM22.9112 14.5309H9.49757C8.80738 14.5309 8.29004 14.2241 7.94555 13.6106C7.60105 12.9971 7.60826 12.3919 7.96715 11.7952L14.674 0.89697C15.0341 0.29899 15.5442 0 16.2044 0C16.8646 0 17.3747 0.29899 17.7348 0.89697L24.4416 11.7952C24.8017 12.3931 24.8095 12.9989 24.465 13.6124C24.1205 14.2259 23.6026 14.5321 22.9112 14.5309ZM33.9842 36.5067L30.4732 33.0085C29.8431 33.4271 29.1607 33.741 28.4261 33.9503C27.6915 34.1596 26.9185 34.2642 26.1071 34.2642C23.8564 34.2642 21.9437 33.4797 20.3689 31.9106C18.7941 30.3415 18.0061 28.4351 18.0049 26.1915C18.0037 23.9479 18.7917 22.0421 20.3689 20.4742C21.9461 18.9063 23.8588 18.1212 26.1071 18.1188C28.3553 18.1164 30.2686 18.9015 31.847 20.4742C33.4254 22.0469 34.2128 23.9527 34.2092 26.1915C34.2092 26.9689 34.1042 27.7241 33.8942 28.4573C33.6841 29.1904 33.384 29.8703 32.9939 30.497L36.5049 33.9952C36.835 34.324 37 34.7426 37 35.2509C37 35.7592 36.835 36.1778 36.5049 36.5067C36.1748 36.8356 35.7547 37 35.2445 37C34.7344 37 34.3143 36.8356 33.9842 36.5067ZM29.3029 29.3758C30.1732 28.5087 30.6083 27.4473 30.6083 26.1915C30.6083 24.9358 30.1732 23.8743 29.3029 23.0073C28.4327 22.1402 27.3674 21.7067 26.1071 21.7067C24.8467 21.7067 23.7814 22.1402 22.9112 23.0073C22.041 23.8743 21.6058 24.9358 21.6058 26.1915C21.6058 27.4473 22.041 28.5087 22.9112 29.3758C23.7814 30.2428 24.8467 30.6764 26.1071 30.6764C27.3674 30.6764 28.4327 30.2428 29.3029 29.3758Z" fill="#999999"/>
</svg>
